<?xml version="1.0" standalone="no"?>
<!DOCTYPE svg PUBLIC "-//W3C//DTD SVG 20010904//EN"
 "http://www.w3.org/TR/2001/REC-SVG-20010904/DTD/svg10.dtd">
<svg version="1.0" xmlns="http://www.w3.org/2000/svg"
 width="1280.000000pt" height="621.000000pt" viewBox="0 0 1280.000000 621.000000"
 preserveAspectRatio="xMidYMid meet">
<metadata>
Created by potrace 1.15, written by Peter Selinger 2001-2017
</metadata>
<g transform="translate(0.000000,621.000000) scale(0.100000,-0.100000)"
fill="#cddc39" stroke="none">
<path d="M632 6047 c-43 -47 -34 -75 54 -167 170 -178 617 -520 1433 -1095
325 -230 381 -278 381 -331 0 -30 -26 -37 -86 -24 -99 22 -225 99 -1079 655
-581 378 -797 515 -873 554 -49 25 -78 17 -88 -24 -9 -35 8 -57 128 -167 350
-324 1051 -881 1493 -1188 66 -46 144 -101 173 -123 113 -82 127 -185 22 -162
-64 14 -442 254 -1330 846 -327 217 -616 408 -641 422 l-46 27 -27 -21 c-15
-12 -26 -30 -26 -44 0 -78 555 -649 1066 -1096 622 -544 994 -791 1499 -992
271 -108 493 -160 685 -159 150 0 207 10 500 87 343 90 394 97 705 99 276 1
344 -5 635 -60 196 -37 528 -124 735 -192 180 -60 590 -226 1230 -499 704
-301 956 -418 1265 -590 558 -309 1036 -554 1270 -650 69 -28 368 -151 665
-273 488 -200 1321 -534 1710 -686 150 -58 237 -76 300 -60 91 23 177 192 241
475 40 178 28 257 -50 316 -36 28 -67 40 -961 380 -1061 403 -1591 593 -1899
680 -105 30 -411 112 -681 184 -811 215 -1068 293 -1555 473 -676 249 -1028
374 -1445 514 -502 167 -761 243 -968 285 -154 30 -268 64 -340 101 -150 75
-299 207 -455 403 -53 66 -124 146 -157 179 -115 111 -365 263 -840 509 -159
83 -461 248 -670 367 -958 547 -1775 996 -1916 1054 -34 14 -37 14 -57 -7z"/>
</g>
</svg>
